<svg width="24" height="12" viewBox="0 0 24 12" fill="none" xmlns="http://www.w3.org/2000/svg">
<path d="M17.2642 0.706914C16.8262 0.370512 16.1985 0.452881 15.8621 0.890891C15.5256 1.3289 15.608 1.95668 16.046 2.29309L17.2642 0.706914ZM21.9052 6.79309C22.3432 7.12949 22.971 7.04712 23.3074 6.60911C23.6438 6.1711 23.5614 5.54332 23.1234 5.20691L21.9052 6.79309ZM23.1234 6.79309C23.5614 6.45668 23.6438 5.8289 23.3074 5.39089C22.971 4.95288 22.3432 4.87051 21.9052 5.20691L23.1234 6.79309ZM16.046 9.70691C15.608 10.0433 15.5256 10.6711 15.8621 11.1091C16.1985 11.5471 16.8262 11.6295 17.2642 11.2931L16.046 9.70691ZM22.5143 7C23.0666 7 23.5143 6.55228 23.5143 6C23.5143 5.44772 23.0666 5 22.5143 5V7ZM1.68164 5C1.12936 5 0.681641 5.44772 0.681641 6C0.681641 6.55228 1.12936 7 1.68164 7V5ZM16.046 2.29309L21.9052 6.79309L23.1234 5.20691L17.2642 0.706914L16.046 2.29309ZM21.9052 5.20691L16.046 9.70691L17.2642 11.2931L23.1234 6.79309L21.9052 5.20691ZM22.5143 5H1.68164V7H22.5143V5Z" fill="white"/>
</svg>
