<svg width="20" height="22" viewBox="0 0 20 22" fill="none" xmlns="http://www.w3.org/2000/svg">
  <path d="M5 4.125V3.5C5.00144 3.00316 5.19945 2.52709 5.55077 2.17577C5.90209 1.82445 6.37816 1.62644 6.875 1.625H15.625C16.1218 1.62644 16.5979 1.82445 16.9492 2.17577C17.3006 2.52709 17.4986 3.00316 17.5 3.5V17.875L14.375 15.375" stroke="#BFBFBF" stroke-width="2" stroke-linejoin="round"/>
  <path d="M12.5 4.75H4.375C3.87816 4.75144 3.40209 4.94945 3.05077 5.30077C2.69945 5.65209 2.50144 6.12816 2.5 6.625V20.375L8.4375 15.375L14.375 20.375V6.625C14.3736 6.12816 14.1756 5.65209 13.8242 5.30077C13.4729 4.94945 12.9968 4.75144 12.5 4.75V4.75Z" stroke="#BFBFBF" stroke-width="2" stroke-linejoin="round"/>
</svg>
