<svg id="Layer_1" data-name="Layer 1" xmlns="http://www.w3.org/2000/svg" viewBox="0 0 17.5 17.5"><defs><style>.cls-1{fill:none;stroke:#000;stroke-miterlimit:10;}</style></defs><title>causes</title><path class="cls-1" d="M6.19,4.47A1.72,1.72,0,1,0,4.47,6.19,1.72,1.72,0,0,0,6.19,4.47Z" transform="translate(-2.25 -2.25)"/><path class="cls-1" d="M12.72,4.47A1.72,1.72,0,1,0,11,6.19,1.72,1.72,0,0,0,12.72,4.47Z" transform="translate(-2.25 -2.25)"/><path class="cls-1" d="M19.25,4.47a1.72,1.72,0,1,0-1.72,1.72A1.72,1.72,0,0,0,19.25,4.47Z" transform="translate(-2.25 -2.25)"/><path class="cls-1" d="M6.19,11a1.72,1.72,0,1,0-1.72,1.72A1.72,1.72,0,0,0,6.19,11Z" transform="translate(-2.25 -2.25)"/><path class="cls-1" d="M12.72,11A1.72,1.72,0,1,0,11,12.72,1.72,1.72,0,0,0,12.72,11Z" transform="translate(-2.25 -2.25)"/><path class="cls-1" d="M19.25,11a1.72,1.72,0,1,0-1.72,1.72A1.72,1.72,0,0,0,19.25,11Z" transform="translate(-2.25 -2.25)"/><path class="cls-1" d="M6.19,17.53a1.72,1.72,0,1,0-1.72,1.72A1.72,1.72,0,0,0,6.19,17.53Z" transform="translate(-2.25 -2.25)"/><path class="cls-1" d="M12.72,17.53A1.72,1.72,0,1,0,11,19.25,1.72,1.72,0,0,0,12.72,17.53Z" transform="translate(-2.25 -2.25)"/><path class="cls-1" d="M19.25,17.53a1.72,1.72,0,1,0-1.72,1.72A1.72,1.72,0,0,0,19.25,17.53Z" transform="translate(-2.25 -2.25)"/></svg>