<svg xmlns="http://www.w3.org/2000/svg" fill="none" viewBox="0 0 20 20">
  <path fill="#BFBFBF" fill-rule="evenodd" d="M1.3 1.33C0 2.66 0 4.81 0 9.1v8.7c0 .88 0 1.33.11 1.57.25.5.83.75 1.36.57.24-.09.55-.4 1.17-1.03.5-.51.74-.77 1.02-.97a4.39 4.39 0 011.95-.83c.33-.05.69-.05 1.4-.05h4.66c3.65 0 5.48 0 6.7-1.03.23-.2.44-.4.62-.63C20 14.14 20 12.27 20 8.53s0-5.6-1-6.87a4.5 4.5 0 00-.62-.63C17.15 0 15.32 0 11.67 0H8.89C4.69 0 2.6 0 1.3 1.33zm3.7 8.9c.92 0 1.67-.76 1.67-1.7S5.92 6.83 5 6.83c-.92 0-1.67.76-1.67 1.7s.75 1.7 1.67 1.7zm6.67-1.7c0 .94-.75 1.7-1.67 1.7-.92 0-1.67-.76-1.67-1.7s.75-1.7 1.67-1.7c.92 0 1.67.76 1.67 1.7zm3.33 1.7c.92 0 1.67-.76 1.67-1.7s-.75-1.7-1.67-1.7c-.92 0-1.67.76-1.67 1.7s.75 1.7 1.67 1.7z" clip-rule="evenodd"/>
</svg>