<svg id="Layer_1" data-name="Layer 1" xmlns="http://www.w3.org/2000/svg" viewBox="0 0 20.25 17.8"><defs><style>.cls-1{fill:none;stroke-miterlimit:10;}.cls-1,.cls-2{stroke:#000;}.cls-2{fill:#fff;stroke-linecap:round;stroke-linejoin:round;}</style></defs><title>ongs</title><path class="cls-1" d="M11,6.88c.69-2.72,3.28-4.1,8.94-4.13a.75.75,0,0,1,.26,0,.86.86,0,0,1,.22.15.54.54,0,0,1,.15.22.66.66,0,0,1,.06.27V15.81a.71.71,0,0,1-.21.49.67.67,0,0,1-.48.2c-5.5,0-7.63,1.11-8.94,2.75C9.7,17.62,7.56,16.5,2.06,16.5a.7.7,0,0,1-.68-.77V3.44a.52.52,0,0,1,.05-.27A.54.54,0,0,1,1.58,3,.86.86,0,0,1,1.8,2.8a.75.75,0,0,1,.26,0C7.72,2.78,10.31,4.16,11,6.88Z" transform="translate(-0.87 -2.25)"/><path class="cls-2" d="M11,6.88V19.25" transform="translate(-0.87 -2.25)"/></svg>