<svg xmlns="http://www.w3.org/2000/svg" fill="none" viewBox="0 0 38 38">
  <path fill="#1890FF" fill-rule="evenodd" d="M19 38a19 19 0 100-38 19 19 0 000 38z" clip-rule="evenodd"/>
  <path fill="#1890FF" fill-rule="evenodd" d="M19 34.2a15.2 15.2 0 100-30.4 15.2 15.2 0 000 30.4z" clip-rule="evenodd"/>
  <path stroke="#fff" stroke-linejoin="round" d="M22.06 13.31h-6.12c-.73 0-1.31.59-1.31 1.31v8.76c0 .72.58 1.3 1.3 1.3h6.13c.73 0 1.32-.58 1.32-1.3v-8.75c0-.73-.6-1.32-1.32-1.32z"/>
  <path stroke="#fff" stroke-linecap="round" stroke-linejoin="round" d="M16.81 15.5h4.38M16.81 17.69h4.38M16.81 19.88H19"/>
</svg>