<svg xmlns="http://www.w3.org/2000/svg" fill="none" viewBox="0 0 38 38">
  <path fill="#1890FF" fill-rule="evenodd" d="M19 38a19 19 0 100-38 19 19 0 000 38z" clip-rule="evenodd"/>
  <path fill="#1890FF" fill-rule="evenodd" d="M19 34.2a15.2 15.2 0 100-30.4 15.2 15.2 0 000 30.4z" clip-rule="evenodd"/>
  <path stroke="#fff" stroke-linejoin="round" d="M23.56 14.03h-8.12c-.68 0-1.22.55-1.22 1.22v7.31c0 .68.54 1.22 1.22 1.22h8.12c.68 0 1.22-.54 1.22-1.22v-7.31c0-.67-.54-1.22-1.22-1.22z"/>
  <path fill="#fff" d="M23.1 14.03h-7.2a1.7 1.7 0 00-1.68 1.7v1.55h.4c0-.4.41-.81.82-.81h8.12c.4 0 .82.4.82.81h.4v-1.54c0-.94-.75-1.7-1.68-1.7zM20.52 18.5a.6.6 0 100-1.22.6.6 0 000 1.22zM22.55 18.5a.6.6 0 100-1.22.6.6 0 000 1.22zM20.52 20.53a.6.6 0 100-1.22.6.6 0 000 1.22zM22.55 20.53a.6.6 0 100-1.22.6.6 0 000 1.22zM16.45 20.53a.6.6 0 100-1.22.6.6 0 000 1.22zM18.48 20.53a.6.6 0 100-1.22.6.6 0 000 1.22zM16.45 22.56a.6.6 0 100-1.22.6.6 0 000 1.22zM18.48 22.56a.6.6 0 100-1.22.6.6 0 000 1.22zM20.52 22.56a.6.6 0 100-1.22.6.6 0 000 1.22z"/>
  <path stroke="#fff" stroke-linecap="round" stroke-linejoin="round" d="M16.25 13.22v.81M22.75 13.22v.81"/>
</svg>