<svg xmlns="http://www.w3.org/2000/svg" fill="none" viewBox="0 0 20 20">
  <path fill="#BBB" fill-rule="evenodd" d="M16.2 3.8a8.68 8.68 0 00-6.16-2.55 8.7 8.7 0 00-7.55 13l-1.24 4.5 4.62-1.2A8.7 8.7 0 0018.09 6.6a8.6 8.6 0 00-1.89-2.82zm-6.16 13.34c-1.3 0-2.58-.35-3.7-1l-.26-.17-2.74.72.73-2.66-.17-.27a7.23 7.23 0 1113.38-3.83c0 3.97-3.25 7.2-7.24 7.2zm3.97-5.4c-.22-.11-1.29-.64-1.49-.7-.2-.08-.34-.12-.49.1a13 13 0 01-.69.85c-.12.15-.25.16-.47.05-.22-.1-.92-.33-1.75-1.07a6.54 6.54 0 01-1.21-1.5c-.13-.22-.02-.34.1-.44.1-.1.21-.26.32-.38.1-.13.15-.22.22-.37.07-.14.03-.27-.02-.37L7.86 6.3c-.18-.43-.36-.37-.5-.38h-.4a.8.8 0 00-.59.27c-.2.21-.76.74-.76 1.8 0 1.07.78 2.1.89 2.25.1.14 1.53 2.33 3.72 3.27.4.17.82.32 1.24.45a3 3 0 001.37.1c.42-.07 1.29-.53 1.47-1.04.18-.5.18-.94.13-1.03-.06-.09-.2-.14-.42-.25z" clip-rule="evenodd"/>
</svg>